<?xml version="1.0" encoding="UTF-8"?>
<svg id="a" data-name="Layer 1" xmlns="http://www.w3.org/2000/svg" width="2345.64" height="242.74" viewBox="0 0 2345.64 242.74">
  <g>
    <path d="M61.43,33.97c6.52,4.87,5.05,14.9,7.07,21.44,1.76,5.71,7.31,15.23,9.75,21.04,3.41,8.14,7.92,16.86,9.43,25.33-4.28,4.28-13.87-14.65-13.73-18.21l-3.34.04c-2.43,1.51-.46,24.95-1.47,29.89-1.16,5.69-7.79,10.9-9.39,15.7-2.21,6.66,4.08,32.27,6.07,40.53,3.45,14.36,9.95,41.16,15.57,53.96,2.83,6.45,8,5.94,14.29,5.69,2.47,6.72-10.93,15.21-15.71,12.86l-2.35-2.27c-6.2-29.68-21.66-56.07-27.66-85.77-1.92-.44-2.3.62-3.39,1.73-3.61,3.67-23.18,34.93-24.4,39.5-2.19,8.18,4.06,8.84,8.35,14.02-10.69,5.74-17.42-1.17-19.43-11.49-.21-3.29,3.17-4.79,4.82-7.64,7.22-12.49,18.33-31.86,23.62-44.8,6.21-15.17,1.15-24.18-4.38-38.64,2.26-7.2,4.24-46.7,1.7-50.67-.88-1.38-1.53-1.28-2.91-.56-2.11,1.11-9.28,9.7-10.71,12.11-2.79,4.73-10.88,30.71-12.37,31.51-1.25.67-2.93.14-4.32.26-2.02-1.88,5.79-26.74,7.46-30.73,2.4-5.75,17.7-27.7,22.17-31.43,3.08-2.57,8.79-3.7,12.55-5.16M59.68,65.32c6.02-1.95,2.61-15.8,1.41-20.75-1.09-4.49-2.67-11.39-8.82-9.99.57,10.75,8.97,19.58,7.41,30.74Z"/>
    <path d="M52.26,34.58c.57,10.75,8.97,19.58,7.41,30.74,6.02-1.95,2.61-15.8,1.41-20.75-1.09-4.49-2.67-11.39-8.82-9.99Z" fill="#fff"/>
    <path d="M12.05,114.96l-.96-3.46s-2.82-.64-5.28,2.82-3.63,5.02-5.53,4.66,6.35-18.21,6.35-18.21l4.56-.54s6.91,14.21.86,14.73Z"/>
    <path d="M83.94,117.74l.96-3.46s2.82-.64,5.28,2.82,3.63,5.02,5.53,4.66-6.35-18.21-6.35-18.21l-4.56-.54s-6.91,14.21-.86,14.73Z"/>
  </g>
  <ellipse cx="55.68" cy="16.06" rx="10.07" ry="15.03"/>
  <g>
    <path d="M374.18,35.02c1.05,3.43,5.62,3.98,6.6,7.09,2.84,8.99,3.24,22.09,6.75,31.99,2.43,6.86,11.05,20.6,11.77,27.09.14,1.31.27,2.79-.52,3.92l-3.89.95-8.16-16.33c-.03-1.4-1.32-.05-1.67.56-3.87,6.7-.41,18.81-2,26.49-1.18,5.69-7.96,14.27-8.82,19.69-1.75,11.12,3.24,25.02,4.49,36.39,1.94,17.65,1.12,35.66,3.69,53.28,1.74,5.63,11.61,4.61,12.31,7.13.64,6.89-17.22,12.55-19.26,6.63-1.2-3.5.26-13.18-.25-17.98-.26-2.44-1.79-4.57-2.1-7.02-2.27-17.62-5.02-35.32-8.1-52.87-1.97-.51-2.28.81-3.43,1.69-9.61,7.42-17.85,19.61-26.75,28.01-2.28,3.97-2.23,7.28,0,11.21,1,1.76,5.95,4.33,2.8,6.39-9.89,1.67-15.27-5.1-13.67-14.77.82-4.99,3.37-4.27,5.63-6.91,9.18-10.69,16.77-22.62,26.32-33,5.91-9.66-.72-30.2-3.74-40.75-.65-2.28-2.93-4.01-3.03-5.91-.39-7.82,3-22.94,3.3-31.98.11-3.34,1.69-19.74-3.43-17.1-1.4.72-9.04,10.24-9.72,11.96-3.57,9.09-1.91,23.36-4.53,33.07l-3.46,2.19c-1.22-.94-2.35-2.53-2.51-4.06-.41-3.87.43-18.02.83-22.62.32-3.67,1.76-10.56,3.19-13.9.91-2.12,16.18-24.97,17.41-25.93,1.97-1.54,13.19-4.65,13.63-5.24M373.12,38.35c-1.31-3.02-3.52-3.23-5.31-.47-1.37,2.11,4.91,18.98,6.4,22.16.79,1.69.75,3.38,3.38,2.89-.26-7.42-1.53-17.8-4.47-24.58Z"/>
    <path d="M377.59,62.93c-.26-7.42-1.53-17.8-4.47-24.58-1.31-3.02-3.52-3.23-5.31-.47-1.37,2.11,4.91,18.98,6.4,22.16.79,1.69.75,3.38,3.38,2.89Z" fill="#fff"/>
    <path d="M341.27,118.64l-2.13-2.9s-2.86.4-3.94,4.5-1.62,5.98-3.52,6.31-.5-19.28-.5-19.28l4.08-2.11s11.48,10.85,6.01,13.47Z"/>
    <path d="M398.98,121.47l-.1-3.59s2.51-1.44,5.88,1.13c3.37,2.57,4.95,3.72,6.66,2.82s-11.46-15.51-11.46-15.51l-4.52.84s-2.39,15.61,3.54,14.32Z"/>
  </g>
  <ellipse cx="369.3" cy="15.03" rx="10.07" ry="15.03"/>
  <g>
    <path d="M687.26,39.12l-2.58-2.13c-1.36.11-9.74,3.18-11.02,3.95-2.82,1.69-17.53,25.5-18.65,29.25-3.22,10.8,4.45,28.52,5,39.64,1.07,3.29,2.23.27,5.53-.08l-3.39-34.66c.68-2.64,8.78-15.82,11.39-13.19-.22,6.23.34,12.55,0,18.78-.33,6.01-4.36,28.1-3.47,31.67.25,1.01,2.44,1.16,3.26,2.69,1.88,3.49,8.47,28.5,9.1,33.13.54,3.96,1.25,9.8-1.35,12.92-5.7,3.37-9.52,8.76-14.36,13.02-4.45,3.93-19.06,13.24-19.4,18.26-.19,2.81,2.91,16.33,7.34,15.33,6.3-4.89-.18-12.52,2.84-17.71,1.13-1.95,20.35-15.4,23.7-17.39,1.04-.61,5.39-3.24,6.07-2.48-2.3,12.28-1.47,24.75-2.23,37.06-.57,9.25-4,21.63-2.3,30.68,1.04,5.54,9.34,4.83,13.19,2.96,2.74-7.23-7.98-6.76-6.41-14.27,1.71-17.35,8.15-37.79,9.18-54.76.54-8.93-3.45-16.76-2.15-27.18.76-6.14,7.87-19.34,7.87-22.91v-23.92c5.56-5.66,6.79,9.61,10.25,11.43,2.78,1.46,4.8.1,4.41-3.17-.96-8.19-8.33-19.91-10.92-27.94-2.69-8.32-3.68-30.73-6.62-35.55-1.03-1.69-4.31-2.47-6.26-2.3,1.09,8.43,4.61,16.33,3.42,25.05l-2.57-1.41c.23-6.11-9.69-19.49-5.43-24.23"/>
    <path d="M671.32,124.21l-2.05-2.95s-2.87.33-4.05,4.4-1.77,5.94-3.68,6.22-.02-19.29-.02-19.29l4.13-2.01s11.21,11.13,5.67,13.62Z"/>
    <path d="M715.15,125.27l.64-3.54s2.75-.9,5.52,2.31c2.77,3.21,4.08,4.66,5.94,4.12s-8.03-17.54-8.03-17.54l-4.59-.11s-5.54,14.79.52,14.74Z"/>
  </g>
  <ellipse cx="692.21" cy="22.89" rx="10.07" ry="15.03"/>
  <g>
    <path d="M1015.8,43.33c1.18.22,2.85.41,3.8,1.05,2.08,1.42,4.02,19.62,4.26,23.42.79,12.68.19,11.05,3.67,23.66.92,3.34,5.99,20.14,4.26,21.37-13.23-4.71-7.47-.36-7.89,7.4-.54,9.88-3.69,21.6-4.66,31.91-.48,5.04.73,11.1-.07,15.88-1.11,6.61-13.12,17.78-15.64,26.56-1.41,4.91-5.4,30.7-4.96,35.04.57,5.66,7.2,5,7.02,11.25-.32,1.94-8.75,2.2-10.71,1.6-5.71-1.74-3.36-10.08-4.44-13.79-.5-1.72-3.09-3.11-4.16-4.96-7.54-13.11-.25-12.51,4.6-23.53,9.63-21.89,2.99-49.32,2.03-72.03-.18-4.26,3.64-10.83-3.41-13.65-2.13-.85-4.4,2.49-5.71,1.57-1.41-.98-8.02-31.24-8.07-34.58-.07-5.45,10.54-30.52,13.94-35.18,2.14-2.93,11.02-6.21,14.72-6.41M1013.26,60.11c.93,4.64-1.95,12.15,4.82,12.84,1.48-1.73-2.59-25.3-4.58-28.74-1.21-2.09-4.66-2.02-6.84-2.01-.92.83,6.15,15.66,6.6,17.9ZM990.37,105.15c1.46-7.83,1.19-15.73,1.44-23.63.14-4.31,2.14-8.15-.01-13.11-1.88-1.7-7.81,9.06-7.99,10.92-.19,1.96.93,11.94,1.28,14.58.64,4.84,2.26,9.62,3.31,14.36,1.51.3,1.79-2.07,1.98-3.12Z"/>
    <path d="M988.39,108.26c1.51.3,1.79-2.07,1.98-3.12,1.46-7.83,1.19-15.73,1.44-23.63.14-4.31,2.14-8.15-.01-13.11-1.88-1.7-7.81,9.06-7.99,10.92-.19,1.96.93,11.94,1.28,14.58.64,4.84,2.26,9.62,3.31,14.36Z" fill="#fff"/>
    <path d="M1006.67,42.21c-.92.83,6.15,15.66,6.6,17.9.93,4.64-1.95,12.15,4.82,12.84,1.48-1.73-2.59-25.3-4.58-28.74-1.21-2.09-4.66-2.02-6.84-2.01Z" fill="#fff"/>
    <path d="M994.42,128.43l-2.05-2.95s-2.87.33-4.05,4.4-1.77,5.94-3.68,6.22-.02-19.29-.02-19.29l4.13-2.01s11.21,11.13,5.67,13.62Z"/>
    <path d="M1026.29,127.21l.64-3.54s2.75-.9,5.52,2.31c2.77,3.21,4.08,4.66,5.94,4.12s-8.03-17.54-8.03-17.54l-4.59-.11s-5.54,14.79.52,14.74Z"/>
  </g>
  <ellipse cx="1011.13" cy="24.79" rx="10.07" ry="15.03"/>
  <g>
    <path d="M1340.77,43.49c5.52,3.99,6.03,12.82,6.82,19.38,1.42,11.68.67,23.57,1.17,35.28.15,3.54,2.34,9.55,2.14,12.61-.13,1.98-2.7,4.71-3.19,8.01-.88,5.93-.58,18.72-.14,25,.52,7.34,4.88,20.05,4.67,26.12-.17,4.74-3.44,14.28-4.32,19.71-2.15,13.17-3.97,26.4-6.13,39.58.23,6.57,9.29,3.88,8.14,9.06s-11.06,5.16-13.83,1.26c-1.78-2.5-1.29-13.39-1.05-17.16,1.77-27.73,10.64-50.33-1.42-77.21-.7-1.56-1.07-3.17-2.59-4.23-1.73,0-4.25,10.16-4.81,12.27-6.18,23.21-10.43,47.17-16.26,70.49-1.05,5.98,7.61,6.83,5.53,13.35-.64,2.32-12.7,1.43-13.6-3.28-1.44-7.58,3.26-22.63,4.43-30.9,2.11-14.97,4.42-29.54,6.85-44.43.83-5.07-.04-11.41,1.57-16.66,1.14-3.74,4.81-5.52,5.29-7.35.68-2.61-4.22-7.48-.99-11.74l3.41,1.15c1.76-6.53-11.67-5.88-12.66-7.57-1.4-10.28-6.9-23.9-6.85-34.01.05-10.02,9.74-24.83,11.43-35.12l13.72-7.18M1340.17,70.25c2.97-3.35,1.24-12.08.3-16.23-1.26-5.54-3.27-12.14-10-11.09l9.7,27.33ZM1314.46,74.23c-4.6,4.26-2.79,19.84-.58,24.52.23.49,1.44,1.42,1.72,1.12-.52-1.48,1.15-3.36,1.15-3.99,0-5.85.73-13.91,0-19.36-.02-.17-1.3-3.9-2.29-2.29Z"/>
    <path d="M1330.47,42.93l9.7,27.33c2.97-3.35,1.24-12.08.3-16.23-1.26-5.54-3.27-12.14-10-11.09Z" fill="#fff"/>
    <path d="M1316.75,76.52c-.02-.17-1.3-3.9-2.29-2.29-4.6,4.26-2.79,19.84-.58,24.52.23.49,1.44,1.42,1.72,1.12-.52-1.48,1.15-3.36,1.15-3.99,0-5.85.73-13.91,0-19.36Z" fill="#fff"/>
    <path d="M1322.16,123.44l-3.37-1.26s-2.17,1.91-.83,5.93,1.92,5.89.51,7.21-8.73-19.86-8.73-19.86h0s15.55,2.79,12.41,7.98Z"/>
    <path d="M1339.92,124.33l2.09-2.93s2.87.37,4,4.45,1.7,5.96,3.6,6.27c1.91.31.25-19.28.25-19.28l-4.11-2.06s-11.34,11-5.84,13.55Z"/>
  </g>
  <ellipse cx="1334.4" cy="24.88" rx="10.07" ry="15.03"/>
  <g>
    <path d="M1653.36,39.06c6.1,3.54,5.95,9.35,6.64,15.94,2.89,27.6,1.76,53.15.03,80.84l17.64,91.77c.05,4.6,18.34,6.34,10.41,12.54-8.91,6.97-14.58-3.03-17.18-10.35-10.23-28.74-13.7-61.13-25.22-89.91-4.13-10.31-4.23-8.38-8.24.78l-25.19,75.2c-.56,5.04,6.07,6.63,4.23,12.08-1.54,4.54-13.5.56-13.09-4.9l23.52-96.89c3.56,1.74,3.18,8.07,7.98,7.97l-1.14-13.66h3.43c1.11-7.66-9.85-5.15-11.98-9.13-2.17-12.94-7.96-26.94-6.03-40.15.6-4.09,6.2-24.18,7.98-27.36,2.6-4.64,9.24-4.78,13.55-7.19M1651.73,63.23c.7,1.58.17,1.78,2.56,1.43,1.46-1.82-1.38-30.13-10.27-26.19-.93.92,6.45,21.86,7.72,24.76Z"/>
    <path d="M1644.02,38.47c-.93.92,6.45,21.86,7.72,24.76.7,1.58.17,1.78,2.56,1.43,1.46-1.82-1.38-30.13-10.27-26.19Z" fill="#fff"/>
    <path d="M1636.71,120.32h-3.37s-2.4.87-1.05,4.89,1.92,5.89.51,7.21-7.81-16.17-7.81-16.17l-1.07-3.17s15.93,2.05,12.79,7.24Z"/>
  </g>
  <ellipse cx="1646.71" cy="21.05" rx="10.07" ry="15.03"/>
  <g>
    <path d="M1971.47,36.86c2.6.24,4.35,2.14,5.18,4.54,4.04,11.58,4.73,43.64,3.94,56.42-.43,7.04-3.22,15.98-3.18,22.79.05,7.78,3.86,24.57,5.81,32.7,5.84,24.32,16.73,48.35,24.95,71.95,4.58,6.99,13.47.52,14.54,6,.72,3.69-14.7,19.4-19.52,5.8-7.73-21.79-17.62-40.76-25.75-62.05-5.05-13.23-9.6-35.8-16.91-46.93-1.19-1.82-4.53-3.8-4.95-5.42-.63-2.43,7.35-8.12-.94-10.43-3.38-.94-2.92.35-3.48,2.15-1.49,4.82,2.58,15.99,2.95,17.91,1.06,5.42-4.96,14.45-7.22,19.65-4.5,10.34-8.52,17.34-13.74,27.32-2.67,5.1-13.71,24.36-14.05,28.22-.65,7.43,12.23,12.72,8.94,16.22-9.78-.14-13.91,1.24-16.81-8.88-3.25-11.37,1.9-12.88,6.36-22.6,11.27-24.58,31.2-64.13,27.47-90.85-3.14-22.5-6.95-25.4-1.85-49.92,2.73-13.12,3.89-13.77,16.86-18.63M1970.04,58.29c.7,1.69-.7,3.1,2.57,2.5.5-7.52-.32-25.62-10.27-25.05-.87.82,6.6,19.86,7.71,22.54Z"/>
    <path d="M1962.33,35.74c-.87.82,6.6,19.86,7.71,22.54.7,1.69-.7,3.1,2.57,2.5.5-7.52-.32-25.62-10.27-25.05Z" fill="#fff"/>
    <path d="M1986.62,114.57l-2.94-2.07s-2.58,1.3-2.29,5.53c.29,4.23.38,6.18-1.32,7.11s-6.64-18.11-6.64-18.11l3.19-3.31s14.35,6.61,10.01,10.84Z"/>
    <path d="M1939.45,114.45l2.17-2.87s2.86.44,3.88,4.56c1.02,4.12,1.54,6,3.44,6.36s.76-19.27.76-19.27l-4.05-2.17s-11.63,10.69-6.19,13.39Z"/>
  </g>
  <ellipse cx="1967.49" cy="17.43" rx="10.07" ry="15.03"/>
  <g>
    <path d="M2297.76,33.9l-13.52,6.69c-1.76,11.17-9.11,25.72-9.19,36.73-.03,4.4,5.1,33.82,7.73,35.34,2.15,1.24,7.14-.46,7.98,2.36.63,2.11-2.02,4.39-2.11,6.68-.1,2.61,2.65,6.75,2.05,9.01-.96,3.63-5.48,1.69-6.18-1.55-.63.78-1.92,1.43-2.27,2.29-2.48,6.15-1.65,17.65-4.92,24.71-2.79,6.03-15.22,22.3-19.88,29.16-6.71,9.88-15.17,13.73-12.12,27.31,1.24,5.5,9.37,9.96,14.61,7.63-2.22-7.51-7.93-9.2-5.18-18.27.99-3.27,15.54-20.24,18.93-24.41,3.08-3.78,11.88-11.85,13.54-14.98,3.57-6.73,4.86-25.62,9.2-31.64.94-1.31,1.62-.6,2.93-.67,11.57,26.16,16.2,54.19,23.12,81.75,2.43,5.11,1.46,28.29,5.61,29.72,6.59,2.26,13.62-3.73,17.54-8.39-3.53-4.49-10.83-1.82-13.42-8.25-3.47-18.25-4.49-36.91-7.46-55.21-1.59-9.75-4.99-18.93-6.33-29-3.87-28.95,2.29-58.27-1.48-87.38-.93-7.22-.88-14.73-8.99-16.66-.48,6.58,3.12,11.97,3.46,18.75.1,2.06,1,8.23-2.33,8.03l-8.04-25.05"/>
    <path d="M2319.07,118.19l-2.94-2.07s-2.58,1.3-2.29,5.53.38,6.18-1.32,7.11-6.64-18.11-6.64-18.11l3.19-3.31s14.35,6.61,10.01,10.84Z"/>
  </g>
  <ellipse cx="2303.17" cy="18.33" rx="10.07" ry="15.03"/>
</svg>
