<?xml version="1.0" encoding="UTF-8"?>
<svg id="a" data-name="Layer 1" xmlns="http://www.w3.org/2000/svg" width="2345.64" height="242.74" viewBox="0 0 2345.64 242.74">
  <g>
    <path d="M47.26,32.19c3.76,1.45,9.47,2.59,12.55,5.16,4.47,3.73,19.77,25.68,22.17,31.43,1.67,3.98,9.48,28.85,7.46,30.73-1.39-.12-3.08.41-4.32-.26-1.49-.8-9.58-26.77-12.37-31.51-1.42-2.41-8.6-11.01-10.71-12.11-1.38-.73-2.03-.83-2.91.56-2.54,3.98-.56,43.47,1.7,50.67-5.52,14.45-10.58,23.46-4.38,38.64,5.29,12.94,16.41,32.3,23.62,44.8,1.65,2.86,5.03,4.36,4.82,7.64-2,10.33-8.74,17.23-19.43,11.49,4.3-5.18,10.54-5.84,8.35-14.02-1.22-4.56-20.78-35.83-24.4-39.5-1.09-1.1-1.47-2.16-3.39-1.73-6,29.7-21.46,56.1-27.66,85.77l-2.35,2.27c-4.78,2.35-18.18-6.14-15.71-12.86,6.29.25,11.46.76,14.29-5.69,5.62-12.8,12.12-39.6,15.57-53.96,1.99-8.26,8.28-33.86,6.07-40.53-1.59-4.79-8.23-10-9.39-15.7-1-4.94.96-28.38-1.47-29.89l-3.34-.04c.14,3.56-9.45,22.49-13.73,18.21,1.51-8.47,6.02-17.19,9.43-25.33,2.44-5.81,7.98-15.33,9.75-21.04,2.02-6.54.55-16.57,7.07-21.44M43.73,34.58c-6.16-1.39-7.73,5.5-8.82,9.99-1.2,4.95-4.61,18.8,1.41,20.75-1.55-11.16,6.84-19.99,7.41-30.74Z"/>
    <path d="M43.73,34.58c-.57,10.75-8.97,19.58-7.41,30.74-6.02-1.95-2.61-15.8-1.41-20.75,1.09-4.49,2.67-11.39,8.82-9.99Z" fill="#fff"/>
    <path d="M83.94,114.96l.96-3.46s2.82-.64,5.28,2.82,3.63,5.02,5.53,4.66-6.35-18.21-6.35-18.21l-4.56-.54s-6.91,14.21-.86,14.73Z"/>
    <path d="M12.05,117.74l-.96-3.46s-2.82-.64-5.28,2.82-3.63,5.02-5.53,4.66,6.35-18.21,6.35-18.21l4.56-.54s6.91,14.21.86,14.73Z"/>
  </g>
  <ellipse cx="40.31" cy="16.06" rx="10.07" ry="15.03"/>
  <g>
    <path d="M371.4,34.4c.44.58,11.66,3.69,13.63,5.24,1.23.96,16.5,23.81,17.41,25.93,1.43,3.34,2.87,10.23,3.19,13.9.4,4.6,1.24,18.76.83,22.62-.16,1.52-1.29,3.12-2.51,4.06l-3.46-2.19c-2.62-9.71-.96-23.98-4.53-33.07-.68-1.72-8.32-11.24-9.72-11.96-5.12-2.64-3.55,13.76-3.43,17.1.3,9.04,3.7,24.15,3.3,31.98-.1,1.9-2.38,3.63-3.03,5.91-3.02,10.56-9.66,31.09-3.74,40.75,9.55,10.38,17.14,22.31,26.32,33,2.27,2.64,4.81,1.91,5.63,6.91,1.6,9.68-3.78,16.44-13.67,14.77-3.15-2.06,1.79-4.62,2.8-6.39,2.23-3.93,2.28-7.24,0-11.21-8.9-8.39-17.14-20.58-26.75-28.01-1.14-.88-1.46-2.2-3.43-1.69-3.09,17.55-5.83,35.25-8.1,52.87-.32,2.45-1.85,4.58-2.1,7.02-.5,4.8.96,14.48-.25,17.98-2.04,5.92-19.9.27-19.26-6.63.7-2.52,10.57-1.5,12.31-7.13,2.56-17.62,1.75-35.63,3.69-53.28,1.25-11.37,6.25-25.27,4.49-36.39-.85-5.41-7.64-14-8.82-19.69-1.59-7.68,1.88-19.79-2-26.49-.35-.61-1.64-1.96-1.67-.56l-8.16,16.33-3.89-.95c-.79-1.13-.67-2.6-.52-3.92.72-6.49,9.33-20.23,11.77-27.09,3.51-9.9,3.91-23,6.75-31.99.98-3.12,5.55-3.66,6.6-7.09M357.65,62.93c2.62.49,2.58-1.2,3.38-2.89,1.5-3.19,7.77-20.06,6.4-22.16-1.79-2.76-4-2.55-5.31.47-2.94,6.78-4.2,17.17-4.47,24.58Z"/>
    <path d="M357.65,62.93c.26-7.42,1.53-17.8,4.47-24.58,1.31-3.02,3.52-3.23,5.31-.47,1.37,2.11-4.91,18.98-6.4,22.16-.79,1.69-.75,3.38-3.38,2.89Z" fill="#fff"/>
    <path d="M393.98,118.64l2.13-2.9s2.86.4,3.94,4.5c1.08,4.1,1.62,5.98,3.52,6.31s.5-19.28.5-19.28l-4.08-2.11s-11.48,10.85-6.01,13.47Z"/>
    <path d="M336.27,121.47l.1-3.59s-2.51-1.44-5.88,1.13c-3.37,2.57-4.95,3.72-6.66,2.82s11.46-15.51,11.46-15.51l4.52.84s2.39,15.61-3.54,14.32Z"/>
  </g>
  <ellipse cx="365.95" cy="15.03" rx="10.07" ry="15.03"/>
  <g>
    <path d="M687.53,39.12l2.58-2.13c1.36.11,9.74,3.18,11.02,3.95,2.82,1.69,17.53,25.5,18.65,29.25,3.22,10.8-4.45,28.52-5,39.64-1.07,3.29-2.23.27-5.53-.08l3.39-34.66c-.68-2.64-8.78-15.82-11.39-13.19.22,6.23-.34,12.55,0,18.78s4.36,28.1,3.47,31.67c-.25,1.01-2.44,1.16-3.26,2.69-1.88,3.49-8.47,28.5-9.1,33.13-.54,3.96-1.25,9.8,1.35,12.92,5.7,3.37,9.52,8.76,14.36,13.02,4.45,3.93,19.06,13.24,19.4,18.26.19,2.81-2.91,16.33-7.34,15.33-6.3-4.89.18-12.52-2.84-17.71-1.13-1.95-20.35-15.4-23.7-17.39-1.04-.61-5.39-3.24-6.07-2.48,2.3,12.28,1.47,24.75,2.23,37.06.57,9.25,4,21.63,2.3,30.68-1.04,5.54-9.34,4.83-13.19,2.96-2.74-7.23,7.98-6.76,6.41-14.27-1.71-17.35-8.15-37.79-9.18-54.76-.54-8.93,3.45-16.76,2.15-27.18-.76-6.14-7.87-19.34-7.87-22.91v-23.92c-5.56-5.66-6.79,9.61-10.25,11.43-2.78,1.46-4.8.1-4.41-3.17.96-8.19,8.33-19.91,10.92-27.94s3.68-30.73,6.62-35.55c1.03-1.69,4.31-2.47,6.26-2.3-1.09,8.43-4.61,16.33-3.42,25.05l2.57-1.41c-.23-6.11,9.69-19.49,5.43-24.23"/>
    <path d="M703.47,124.21l2.05-2.95s2.87.33,4.05,4.4c1.18,4.07,1.77,5.94,3.68,6.22s.02-19.29.02-19.29l-4.13-2.01s-11.21,11.13-5.67,13.62Z"/>
    <path d="M659.64,125.27l-.64-3.54s-2.75-.9-5.52,2.31c-2.77,3.21-4.08,4.66-5.94,4.12s8.03-17.54,8.03-17.54l4.59-.11s5.54,14.79-.52,14.74Z"/>
  </g>
  <ellipse cx="682.57" cy="22.89" rx="10.07" ry="15.03"/>
  <g>
    <path d="M1009.96,39.91c3.69.2,12.58,3.49,14.72,6.41,3.4,4.65,14.01,29.73,13.94,35.18-.04,3.34-6.66,33.6-8.07,34.58-1.31.91-3.57-2.42-5.71-1.57-7.06,2.82-3.23,9.39-3.41,13.65-.95,22.71-7.6,50.14,2.03,72.03,4.85,11.02,12.14,10.42,4.6,23.53-1.07,1.86-3.66,3.24-4.16,4.96-1.08,3.71,1.27,12.05-4.44,13.79-1.96.6-10.39.34-10.71-1.6-.18-6.24,6.45-5.59,7.02-11.25.44-4.34-3.55-30.13-4.96-35.04-2.52-8.78-14.53-19.95-15.64-26.56-.8-4.78.4-10.84-.07-15.88-.97-10.32-4.12-22.03-4.66-31.91-.42-7.76,5.34-12.11-7.89-7.4-1.73-1.23,3.34-18.03,4.26-21.37,3.48-12.61,2.88-10.97,3.67-23.66.24-3.8,2.18-22,4.26-23.42.95-.65,2.62-.83,3.8-1.05M1007.67,42.21c-2.17-.01-5.62-.08-6.84,2.01-1.99,3.43-6.06,27-4.58,28.74,6.76-.7,3.88-8.21,4.82-12.84.45-2.24,7.52-17.07,6.6-17.9ZM1025.94,108.26c1.05-4.74,2.67-9.53,3.31-14.36.35-2.64,1.47-12.61,1.28-14.58-.18-1.86-6.12-12.61-7.99-10.92-2.15,4.96-.15,8.8-.01,13.11.25,7.9-.02,15.8,1.44,23.63.2,1.05.47,3.42,1.98,3.12Z"/>
    <path d="M1025.94,108.26c-1.51.3-1.79-2.07-1.98-3.12-1.46-7.83-1.19-15.73-1.44-23.63-.14-4.31-2.14-8.15.01-13.11,1.88-1.7,7.81,9.06,7.99,10.92.19,1.96-.93,11.94-1.28,14.58-.64,4.84-2.26,9.62-3.31,14.36Z" fill="#fff"/>
    <path d="M1007.67,42.21c.92.83-6.15,15.66-6.6,17.9-.93,4.64,1.95,12.15-4.82,12.84-1.48-1.73,2.59-25.3,4.58-28.74,1.21-2.09,4.66-2.02,6.84-2.01Z" fill="#fff"/>
    <path d="M1019.91,128.43l2.05-2.95s2.87.33,4.05,4.4,1.77,5.94,3.68,6.22.02-19.29.02-19.29l-4.13-2.01s-11.21,11.13-5.67,13.62Z"/>
    <path d="M988.04,127.21l-.64-3.54s-2.75-.9-5.52,2.31-4.08,4.66-5.94,4.12,8.03-17.54,8.03-17.54l4.59-.11s5.54,14.79-.52,14.74Z"/>
  </g>
  <ellipse cx="1003.21" cy="24.79" rx="10.07" ry="15.03"/>
  <g>
    <path d="M1325.78,39.92l13.72,7.18c1.69,10.29,11.38,25.1,11.43,35.12.05,10.11-5.45,23.73-6.85,34.01-.99,1.68-14.42,1.04-12.66,7.57l3.41-1.15c3.23,4.26-1.67,9.12-.99,11.74.48,1.83,4.15,3.61,5.29,7.35,1.61,5.25.74,11.6,1.57,16.66,2.43,14.89,4.75,29.45,6.85,44.43,1.16,8.27,5.87,23.32,4.43,30.9-.9,4.71-12.96,5.6-13.6,3.28-2.07-6.51,6.58-7.37,5.53-13.35-5.83-23.32-10.08-47.28-16.26-70.49-.56-2.1-3.09-12.27-4.81-12.27-1.52,1.05-1.9,2.67-2.59,4.23-12.05,26.88-3.19,49.48-1.42,77.21.24,3.77.73,14.65-1.05,17.16-2.76,3.9-12.64,4.1-13.83-1.26s7.91-2.49,8.14-9.06c-2.16-13.18-3.98-26.41-6.13-39.58-.89-5.43-4.16-14.97-4.32-19.71-.21-6.08,4.16-18.79,4.67-26.12.44-6.28.74-19.07-.14-25-.49-3.3-3.06-6.03-3.19-8.01-.2-3.06,1.98-9.07,2.14-12.61.51-11.71-.25-23.61,1.17-35.28.8-6.56,1.3-15.39,6.82-19.38M1323.4,42.93c-6.73-1.05-8.74,5.55-10,11.09-.94,4.15-2.68,12.89.3,16.23l9.7-27.33ZM1337.12,76.52c-.73,5.46,0,13.52,0,19.36,0,.63,1.68,2.51,1.15,3.99.29.3,1.49-.62,1.72-1.12,2.21-4.68,4.01-20.26-.58-24.52-1-1.61-2.27,2.12-2.29,2.29Z"/>
    <path d="M1323.4,42.93l-9.7,27.33c-2.97-3.35-1.24-12.08-.3-16.23,1.26-5.54,3.27-12.14,10-11.09Z" fill="#fff"/>
    <path d="M1337.12,76.52c.02-.17,1.3-3.9,2.29-2.29,4.6,4.26,2.79,19.84.58,24.52-.23.49-1.44,1.42-1.72,1.12.52-1.48-1.15-3.36-1.15-3.99,0-5.85-.73-13.91,0-19.36Z" fill="#fff"/>
    <path d="M1331.71,123.44l3.37-1.26s2.17,1.91.83,5.93c-1.35,4.02-1.92,5.89-.51,7.21s8.73-19.86,8.73-19.86h0s-15.55,2.79-12.41,7.98Z"/>
    <path d="M1313.96,124.33l-2.09-2.93s-2.87.37-4,4.45-1.7,5.96-3.6,6.27c-1.91.31-.25-19.28-.25-19.28l4.11-2.06s11.34,11,5.84,13.55Z"/>
  </g>
  <ellipse cx="1319.48" cy="24.88" rx="10.07" ry="15.03"/>
  <g>
    <path d="M1652.75,36.65c4.31,2.41,10.95,2.55,13.55,7.19,1.78,3.18,7.38,23.27,7.98,27.36,1.94,13.21-3.86,27.21-6.03,40.15-2.13,3.99-13.1,1.48-11.98,9.12h3.43s-1.14,13.67-1.14,13.67c4.8.11,4.42-6.23,7.98-7.97l23.52,96.89c.4,5.46-11.55,9.44-13.09,4.9-1.85-5.45,4.79-7.05,4.23-12.08l-25.19-75.2c-4.02-9.16-4.12-11.09-8.24-.78-11.52,28.77-14.99,61.17-25.22,89.91-2.6,7.31-8.27,17.32-17.18,10.35-7.93-6.21,10.36-7.95,10.41-12.54l17.64-91.77c-1.73-27.7-2.86-53.25.03-80.84.69-6.59.54-12.4,6.64-15.94M1649.4,38.47c-8.89-3.94-11.74,24.37-10.27,26.19,2.39.35,1.86.15,2.56-1.43,1.27-2.89,8.64-23.84,7.72-24.76Z"/>
    <path d="M1649.4,38.47c.93.92-6.45,21.86-7.72,24.76-.7,1.58-.17,1.78-2.56,1.43-1.46-1.82,1.38-30.13,10.27-26.19Z" fill="#fff"/>
    <path d="M1656.7,120.32h3.37s2.4.87,1.05,4.89-1.92,5.89-.51,7.21,7.81-16.17,7.81-16.17l1.07-3.17s-15.93,2.05-12.79,7.24Z"/>
  </g>
  <ellipse cx="1646.71" cy="21.05" rx="10.07" ry="15.03"/>
  <g>
    <path d="M1972.89,32.8c12.97,4.86,14.13,5.51,16.86,18.63,5.09,24.52,1.29,27.42-1.85,49.92-3.73,26.72,16.2,66.27,27.47,90.85,4.46,9.72,9.61,11.24,6.36,22.6-2.9,10.12-7.03,8.73-16.81,8.88-3.3-3.5,9.59-8.79,8.94-16.22-.34-3.86-11.38-23.12-14.05-28.22-5.22-9.98-9.24-16.98-13.74-27.32-2.26-5.2-8.28-14.22-7.22-19.65.38-1.92,4.45-13.08,2.95-17.91-.56-1.8-.1-3.09-3.48-2.15-8.29,2.31-.31,8-.94,10.43-.42,1.63-3.76,3.61-4.95,5.42-7.31,11.13-11.87,33.7-16.91,46.93-8.13,21.29-18.01,40.26-25.75,62.05-4.83,13.6-20.25-2.1-19.52-5.8,1.07-5.49,9.96.99,14.54-6,8.22-23.61,19.11-47.63,24.95-71.95,1.95-8.13,5.76-24.93,5.81-32.7.04-6.81-2.75-15.75-3.18-22.79-.78-12.78-.09-44.83,3.94-56.42.83-2.39,2.58-4.29,5.18-4.54M1970.63,35.74c-9.95-.57-10.77,17.52-10.27,25.05,3.26.59,1.87-.81,2.57-2.5,1.11-2.69,8.58-21.73,7.71-22.54Z"/>
    <path d="M1970.63,35.74c.87.82-6.6,19.86-7.71,22.54-.7,1.69.7,3.1-2.57,2.5-.5-7.52.32-25.62,10.27-25.05Z" fill="#fff"/>
    <path d="M1946.35,114.57l2.94-2.07s2.58,1.3,2.29,5.53c-.29,4.23-.38,6.18,1.32,7.11s6.64-18.11,6.64-18.11l-3.19-3.31s-14.35,6.61-10.01,10.84Z"/>
    <path d="M1993.52,114.45l-2.17-2.87s-2.86.44-3.88,4.56c-1.02,4.12-1.54,6-3.44,6.36s-.76-19.27-.76-19.27l4.05-2.17s11.63,10.69,6.19,13.39Z"/>
  </g>
  <ellipse cx="1965.47" cy="17.43" rx="10.07" ry="15.03"/>
  <g>
    <path d="M2292.58,33.9l13.52,6.69c1.76,11.17,9.11,25.72,9.19,36.73.03,4.4-5.1,33.82-7.73,35.34-2.15,1.24-7.14-.46-7.98,2.36-.63,2.11,2.02,4.39,2.11,6.68.1,2.61-2.65,6.75-2.05,9.01.96,3.63,5.48,1.69,6.18-1.55.63.78,1.92,1.43,2.27,2.29,2.48,6.15,1.65,17.65,4.92,24.71,2.79,6.03,15.22,22.3,19.88,29.16,6.71,9.88,15.17,13.73,12.12,27.31-1.24,5.5-9.37,9.96-14.61,7.63,2.22-7.51,7.93-9.2,5.18-18.27-.99-3.27-15.54-20.24-18.93-24.41-3.08-3.78-11.88-11.85-13.54-14.98-3.57-6.73-4.86-25.62-9.2-31.64-.94-1.31-1.62-.6-2.93-.67-11.57,26.16-16.2,54.19-23.12,81.75-2.43,5.11-1.46,28.29-5.61,29.72-6.59,2.26-13.62-3.73-17.54-8.39,3.53-4.49,10.83-1.82,13.42-8.25,3.47-18.25,4.49-36.91,7.46-55.21,1.59-9.75,4.99-18.93,6.33-29,3.87-28.95-2.29-58.27,1.48-87.38.93-7.22.88-14.73,8.99-16.66.48,6.58-3.12,11.97-3.46,18.75-.1,2.06-1,8.23,2.33,8.03l8.04-25.05"/>
    <path d="M2271.27,118.19l2.94-2.07s2.58,1.3,2.29,5.53c-.29,4.23-.38,6.18,1.32,7.11s6.64-18.11,6.64-18.11l-3.19-3.31s-14.35,6.61-10.01,10.84Z"/>
  </g>
  <ellipse cx="2287.17" cy="18.33" rx="10.07" ry="15.03"/>
</svg>
