<?xml version="1.0" encoding="UTF-8"?>
<svg id="a" data-name="Layer 1" xmlns="http://www.w3.org/2000/svg" viewBox="0 0 3672.69 207.12">
  <g>
    <ellipse cx="31.59" cy="18.08" rx="10.07" ry="15.03"/>
    <path d="M57.28,96.32l-3.4-.64c-1.91-4.21-3.07-25.84-7.06-26.75l-2.68,1.7c1.06,9.29,3.18,20.26,2.15,29.54-.98,8.83-6.84,19.71-7.69,29.59-1.23,14.31,5.1,19.77,10.08,31.58,3.71,8.81,6.63,18.02,10.58,26.72.9,1.99,3.02,2.84,3.5,5.27,3.63,18.37-16.54,13.18-27.47,9.28-3.37-4.55,17.46-4.81,18.52-10.56-2.57-3.84-13.84-31.1-15.35-32.04-.68-.43-2.18,0-3.17-.13l-6.53,36.79c-5.07,3.53-21.31-6.13-23.15-12.13,1.51-2.24,1.65-1.05,3.03-.88,2.62.34,14.16,4.37,15.14,2.59.8-15.14,6.35-33.96,4.9-48.82-.92-9.49-6.82-21.1-8.53-30.95-1.66-9.56-.56-19.3-2.47-28.78-1.28-.93-11.49,17.4-12.11,19.72-2.27-.09-5.3-1.37-5.54-3.85-.41-4.27,11.31-18.81,13.32-24.04,2.47-6.44,3.27-21.81,7.14-26.86.63-.82,9.06-4.83,10.37-5.1,4.18-.87,9.72,2.68,13.32,4.71l13.12,33.77v20.27Z"/>
  </g>
  <g>
    <ellipse cx="374.63" cy="15.03" rx="10.07" ry="15.03"/>
    <path d="M397.86,93.26c-1.76.33-2.38-.37-3.04-1.89-2.53-5.85-.22-14.54-2.26-20.76-.63-1.91-.71-4.06-3.49-3.64-1.49,1.72,2.13,19.63,2.09,23.44-.17,15.84-12.47,38.81-8.18,55.49,1.04,4.05,10.89,25.29,13.33,29.46,1.3,2.23,4.49,3.3,4.89,6.18.47,3.35-6.11,24.88-12.64,22.46-1.89-.49-1.93-13.54-1.68-15.92.37-3.49,3.34-9.08,3.13-10.7-.12-.91-7.29-13.94-8.1-13.95-4.39,3.7-4.57,30.3-5.98,31.29-8.49.74-17.87-3.11-23.17-9.96l1.73-2.69c5.36,1.02,11.22,4.08,16.48,1.13l2.74-33.53c-4.95-15.17-7.62-33.25-9.83-49.41-.75-5.47-.24-16.38-1.38-20.54-.18-.65-1.32-2.28-2.06-1.26l-9.91,15.43-4.25-.76c-3.22-5.01,11.8-21.79,13.43-27.44,2.94-10.2-.71-27.58,12.81-31.07,6.85-1.77,10.34.63,15.97,3.88,5.87,18.01,14.32,35.32,9.36,54.77Z"/>
  </g>
  <g>
    <ellipse cx="702.45" cy="19.63" rx="10.07" ry="15.03"/>
    <path d="M705.63,166.35c-.96-4.69-11.08-14.89-12.04-20.88-1.78-11,.57-27.53-.01-39.44-.32-6.42-1.78-13.72-2.25-20.22-7.12.71-7.59,20.83-15.44,9.34.03-3.17,12.69-19.7,14.41-25.17,2.11-6.72.02-22.76,4.27-27.52.82-.92,9.08-4.88,10.45-4.92,2.47-.08,11.64,3.3,12.72,5.25,1.42,2.59,5.86,18.68,6.77,22.57,1.73,7.39,2.48,23.81-.36,30.68-.95,2.31-3.62,1.13-4.24,2.58-5.61,13.08-7.25,50.25-5.5,64.47.33,2.7,3.01,8.6,4.58,10.78,2.78,3.85,6.37,3.3,6.44,10.01.04,3.62-3.67,21.41-7.33,22.36-4.21,1.1-3.96-4.58-4.94-5.2-1.26-.8-6.82.14-9.18-.18-6.28-.85-15.58-3.67-15.95-10.94,2.76.8,17.6,2.5,17.6-.55-.94-6.75,1.28-16.75,0-23.01ZM705.63,147.18v-15.89c0-.83-1.83-3.18-1.11-4.93-.71-.08-2.19,1.46-2.19,1.64v16.44c0,.21,2.49,2.72,3.3,2.74Z"/>
    <path d="M705.63,147.18c-.81-.02-3.3-2.53-3.3-2.74v-16.44c0-.19,1.48-1.72,2.19-1.64-.72,1.75,1.11,4.1,1.11,4.93v15.89Z" fill="#fff"/>
  </g>
  <g>
    <ellipse cx="1027.49" cy="22" rx="10.07" ry="15.03"/>
    <path d="M1033.93,206.29c-.42-.26-.45-2.03-2.05-2.82-1.2-.59-17.56-2.71-11.8-6.88l9.2-2.15,2.06-15.61-20.12-29.14c.21-2.66.33-5.44.78-8.08,2.4-14.04,10.37-32.14,6.13-46.1-.22-.74-1.2-2.34-2.01-1.31l-4.04,7.18-4.59-.19c-.45-1.04-1.12-2.39-.97-3.51.75-5.56,9.3-16.57,10.46-22.34.72-3.57-.16-7.22.26-10.7s1.92-18.88,3.19-20.69c.36-.52,11.02-5,11.66-4.99,1.36,0,11.48,4.33,12.11,5.4,1.46,12.85,7.31,24.54,5.93,37.7-.52,4.96-3.25,10.95-4.01,15.73-4.83,30.35-.1,58.17-.22,88.53,0,2.25-1.1,4.29-1.04,6.41.09,3.47,3.9,9.12-.15,11.04-1.42.68-9.83,3.11-10.76,2.54ZM1037.01,172.56c.45-16.13-1.51-33.83-4.39-49.86-.32-1.78.57-3.57-1.65-4.91-2.62,0-11.15,25.93-10.45,30.07l16.48,24.69Z"/>
    <path d="M1037.01,172.56l-16.48-24.69c-.7-4.15,7.83-30.06,10.45-30.07,2.22,1.34,1.33,3.13,1.65,4.91,2.88,16.02,4.84,33.72,4.39,49.86Z" fill="#fff"/>
  </g>
  <g>
    <ellipse cx="1357.11" cy="20.68" rx="10.07" ry="15.03"/>
    <path d="M1381.49,201.78c-4.96,3.17-12.48-.05-16.78.44-2.64.31-4.71,4.71-8.37,2.46-3.15-1.94-5.33-14.06-5.42-17.72-.1-3.92,2.66-7.16,1.68-10.26-1.9-6.02-22.31-23.61-22.62-28.96l16.39-38.47.05-9.25-7.56-.15c-1.89-2.91,4.21-14.36,5.09-18.21,1.89-8.24.19-36.94,5.33-40.72,7.1-5.23,14.98-3.21,21.95.95-.02,9.92,5.13,21.04,5.39,30.58.14,5.14-3.37,10.64-3.76,15.08-2.08,23.61.78,38.61,4.11,61.49,1.25,8.63.6,16.72,1.37,24.94.39,4.17,4.21,26.11,3.14,27.81ZM1360.73,115.36c-2.11-.36-3.17,1.42-4.37,2.76-2.98,3.34-16.6,25.07-16.3,28.3,6.46,7.24,11.16,17.61,16.89,24.76,1.81,2.26,5.03,2.97,6.26,5.82,1.98,4.56-.39,13.83,1.31,16.23,1.17,1.66,8.4,1.93,9.26-.77,1.37-5.04-1.36-9.59-1.93-14.21-1.26-10.18-1.8-22.67-3.68-32.5-1.85-9.68-6.83-20.13-7.45-30.39Z"/>
    <path d="M1360.73,115.36c.62,10.26,5.6,20.71,7.45,30.39,1.88,9.83,2.42,22.32,3.68,32.5.57,4.62,3.3,9.18,1.93,14.21-.87,2.7-8.1,2.43-9.26.77-1.69-2.41.68-11.67-1.31-16.23-1.24-2.85-4.45-3.55-6.26-5.82-5.72-7.15-10.43-17.52-16.89-24.76-.3-3.23,13.32-24.96,16.3-28.3,1.2-1.34,2.26-3.12,4.37-2.76Z" fill="#fff"/>
  </g>
  <g>
    <ellipse cx="1683.27" cy="22" rx="10.07" ry="15.03"/>
    <path d="M1694.42,44.52c-2.22,9.92,8.33,28.97,2.88,37.06-1.07,1.59-3.17,1.86-3.54,2.47-.74,1.22-.54,5.56-1.35,7.41l3.28-1.09c1.49,4.93-.03,9.3-.04,13.65-.13,33.67,11.27,63.66,16.5,96.63.22,1.28.24,2.53-.47,3.69-2.02,3.3-20.09,1.05-23.68-.56-8.37-3.76,1.69-6.14,6.16-7,3.4-.65,8.19,1.35,9.93-2.82l-20.51-77.29c-2.94-2.3-13.08,28.33-13.24,31.26s4.75,30.47,5.78,34.81c.78,3.3,5.02,5.82,4.26,9.94-7.07,3.5-14.68,7.94-22.83,5.27-11.47-3.76,10.55-6.54,11.74-12.83,1.36-7.21-7.79-26.44-7.79-36.12,0-11.5,7.65-27.52,8.69-39.47-.1-5.28-4.19-5.55-4.32-7.63-.22-3.38,2.05-8.34,2.31-12.09.72-10.45,1.07-19.03,2.2-29.59.55-5.16-1.17-10.85,1.35-15.65,8.93-3.07,13.83-5.73,22.7-.04Z"/>
  </g>
  <g>
    <ellipse cx="2010.7" cy="22" rx="10.07" ry="15.03"/>
    <path d="M2022.84,45.59c.28,9.09,4.46,21.45,4.17,30.21-.12,3.71-2.87,7.04-2.98,10.77-.23,8.18-.19,20.12,0,28.51.68,28.39,14.53,55.89,22.86,82.41,1.13,3.58,2.49,8.04-2.49,9-3.69.71-22.84-1.26-23.62-4.91,2.15-4.96,11.31-4.21,15.95-4.94,1.49-.23,1.91.74,1.63-1.58l-26.94-76.19-13.2,84.37c-2.32,4.81-17.08-2.2-20.24-5.03-1.16-1.04-7.47-8.6-2.92-8.07,5.59.66,11.01,4.53,17.06,3.18,3.91-26.66,6.56-53.41,6.72-80.42.44-3.6,5.01-6.44-.59-8.25-.72-19.05-2.27-38.26.76-57.33l1.5-1.79c9.34-5.39,12.98-4.61,22.32.06Z"/>
  </g>
  <g>
    <ellipse cx="2338.14" cy="22" rx="10.07" ry="15.03"/>
    <path d="M2348.91,44.57c1.7,2.25,5.1,30.22,4.55,34.24-2.31,17.09-5.39,37.23-3.1,54.71,1.76,13.41,11.98,32.53,18.35,45.28,1.04,2.07,3.46,3.65,4.12,5.75,1.79,5.64-1.09,14.58-3.53,19.89-2.98,1.21-14.54,2.23-15.77-.65-1.67-3.91,5.57-3.2,7.45-6.81.8-1.53,2.54-13.07,2.26-14.82-.94-5.89-14.65-23.61-17.63-31.85-2.71-7.47-3.33-16.41-5.61-24-.41-1.36-1.33-5.03-2.98-5.24-3.5,12.63-2.06,26.3-3.32,38.88-1.08,10.76-3.88,21.27-5.35,31.93-.62,4.46.76,9.21-1.39,13.41-9.3.16-19.63-2.31-24.09-11.35l1.68-2.72c4.88,3.2,11.45,3.35,17.07,3.27l4.44-64.07c.86-14.14-2.43-24.59-2.2-38.35.13-7.62-1.25-43.42,3.29-47.14.35-.29,7.73-3.72,8.27-3.82,2.71-.51,12.19,1.75,13.49,3.47Z"/>
  </g>
  <g>
    <ellipse cx="2665.57" cy="20.83" rx="10.07" ry="15.03"/>
    <path d="M2665.24,131.95c-1.92-.26-1.03,2.49-1.09,3.82-.48,11.65.58,23.43-.01,35.07-.57,11.27-4.19,22.68-2.35,34.36-6.21,2.19-19.41-1.2-23.94-5.96-7.61-7.99,11.28-2.26,15.67-3.69,1.16-.27,1.58-2.89,1.72-3.96,2.63-21.27-.64-49.56-2.07-71.16-.25-3.83,1.03-14.39-1.09-16.45-1.48-1.44-5.49-1.25-5.47-4.27,6.38-15.24,4.03-31.45,5.47-47.19.16-1.71.76-6.15,1.32-7.45.68-1.59,9.26-6.25,11.26-6.31,3.02-.1,10.71,2.82,12.13,5.56,3.59,6.91,3.07,22.27,5.89,30.14-4.9,8.61-2.84,12.51-3.04,20.8-.34,14.08-8.16,31.46-5.32,46.86.74,4.02,12.92,25.65,15.82,31.36,3.79,7.46,5.69,5.02,4.69,15.88-1.54,16.81-10.71,24.36-12,2.37-.3-5.12,2.33-12.21,2.06-14.03-1.02-6.87-15.64-22.38-18.03-30.34-1.23-4.09-.98-10.93-1.6-15.39Z"/>
  </g>
  <g>
    <ellipse cx="2993.01" cy="20.83" rx="10.07" ry="15.03"/>
    <path d="M3004.19,42.33c.71,9.28,7.23,23.1,6.78,31.93-.23,4.6-3.68,9.45-4.27,13.37-.88,5.82.08,11.84-1.46,18.27-2.68,11.19-9.09,22.91-9.29,35.24,5.93,8.11,9.99,17.97,15.27,26.24,1.47,2.31,5.1,4.59,5.85,6.23,2.44,5.37-1.04,21.7-5.5,26.28-8.75-5.47-8.01-18.86-5.14-27.68l-9.68-12.87-.16,45.33c-1.03,3.05-14.86,1.19-17.91.61-1.94-.37-10.5-2.84-10.52-4.84,2.98-5.91,18.61-2.3,20.4-4.86,1.07-31.4-4.58-62.5-8.48-93.61l-1.45-1.52-7.2.82c-1.58-1.58,5.64-21.12,6.34-24.92,2.06-11.11.24-22.65,3.47-33.53,8.79-5.59,14.08-6.24,22.95-.48Z"/>
  </g>
  <g>
    <ellipse cx="3320.44" cy="20.83" rx="10.07" ry="15.03"/>
    <path d="M3335.26,206.35c-1.82,2.11-26.99-.41-28.45-3.75-.23-.53-.47-2.76.63-2.79l19.15-3.21c1.33-1.25-2.78-33.11-3.79-36.23-1.57-4.87-11.85-12.71-12.71-18.1s4.64-14.15,4.48-20.74c-.11-4.54-3.16-11.6-4.18-16.74-.72-3.63-.34-7.58-1.41-11.2-3.85-.87-3.54,5.74-4.54,6.43l-5.36.15c-1.78-10.04,7.06-19.34,8.55-28.21,1.14-6.77-.63-26.72,5.34-30.85.62-.43,8.32-4.16,8.8-4.22,2.17-.26,11.19,2.92,12.44,4.73,4,5.77,4.08,24.39,7.84,31.73.17,2.94-5.63,28.52-6.94,31.46-2.34,5.28-8.66,8.82-9.64,16.69-.86,6.86,4.1,39.58,8.3,44.39,2.73,3.12,6.29,1.6,7.09,7.24.55,3.92-1.5,11.81-2.69,15.81-.84,2.84-3.37,5.48-3.71,7.36-.56,3.07,1.91,6.72.81,10.04Z"/>
  </g>
  <g>
    <ellipse cx="3647.88" cy="18.39" rx="10.07" ry="15.03"/>
    <path d="M3670.8,95.37l-5.98,1.23c2.11,8.64-7.45,14.01-9.74,20.91-3.07,9.24,5.81,31.37,7.89,41.34,3.01,14.46,4.23,29.27,7.92,43.6-.41,7.85-23.54,1.78-28.52.47-.27-8.55,13.31-5.22,17.99-6.72,4.41-1.42-.81-8.89-.39-11.89-2.66-2.48-4.93,10.16-10.98,7.18-7.02-3.46,2.44-18.83,2.18-22.98-.41-6.52-12.26-19.74-13.18-28.67-.69-6.66,5.71-15.31,5.55-20.68-.14-4.72-4.21-11.45-5.28-16.76-1.16-5.81-1.34-12.93-1.39-18.89-7.09,1.58-4.21,14.81-13.19,13.15-3.44-3.36,8.97-23.81,10.25-28.69,1.78-6.78,1.74-22.3,6.17-27.55.27-.32,7.01-3.34,7.75-3.52,14.57-3.58,18.07,12.2,21.23,22.76,3.79,12.68,4.26,17.55,3.01,30.99-.15,1.64-.51,3.3-1.27,4.76ZM3666.56,86.75c-.8-5.29,2.53-13.55-3.28-16.43l.27,6.85,3.01,9.59Z"/>
    <path d="M3666.56,86.75l-3.01-9.59-.27-6.85c5.81,2.88,2.48,11.14,3.28,16.43Z" fill="#fff"/>
  </g>
</svg>